<svg xmlns="http://www.w3.org/2000/svg" xmlns:xlink="http://www.w3.org/1999/xlink" width="77" height="76" viewBox="0 0 77 76">
    <defs>
        <path id="a" d="M0 34.353h58.306V0H0z"/>
    </defs>
    <g fill="none" fill-rule="evenodd">
        <g fill-rule="nonzero" stroke="#FF5000">
            <circle cx="38.5" cy="38" r="37" stroke-width="2"/>
            <circle cx="38.5" cy="38" r="32.5" fill="#FFF" fill-opacity=".7"/>
        </g>
        <g transform="translate(9 23)">
            <path d="M18.683 27.5v-5.439c0-.193.154-.349.346-.349h2.962a4.318 4.318 0 0 0 4.306-4.318c0-1.402-.649-2.431-1.276-3.426a17.288 17.288 0 0 1-.602-1.003c-.166-.307-.383-.65-.619-1.024-.771-1.222-1.733-2.745-1.733-4.304C22.067 3.702 25.26.5 29.181.5l.221.004c3.816.114 6.91 3.326 6.895 7.158-.006 2.069-.758 3.084-2.403 5.31-.904 1.221-1.826 2.612-1.826 4.324 0 2.478 1.931 4.416 4.306 4.416h2.962c.192 0 .346.156.346.349V27.5h-21z"/>
            <path fill="#FF5000" d="M29.182 0c-4.206 0-7.615 3.419-7.615 7.637 0 2.197 1.693 4.242 2.412 5.566.745 1.371 1.819 2.53 1.819 4.092v.1a3.813 3.813 0 0 1-3.808 3.817h-2.961a.848.848 0 0 0-.847.849V28h22v-5.939a.847.847 0 0 0-.846-.849h-2.961a3.813 3.813 0 0 1-3.808-3.817v-.099c0-1.501.799-2.77 1.69-3.976 1.695-2.29 2.533-3.406 2.541-5.656.014-4.074-3.32-7.538-7.381-7.66A6.14 6.14 0 0 0 29.182 0m0 1c.068 0 .137.001.205.003 3.547.107 6.423 3.094 6.411 6.657-.007 1.906-.68 2.817-2.308 5.016l-.037.051c-.979 1.324-1.886 2.794-1.886 4.569v.099c0 1.286.5 2.496 1.407 3.405a4.771 4.771 0 0 0 3.401 1.412h2.807V27h-20v-4.788h2.808a4.818 4.818 0 0 0 4.808-4.817v-.1c0-1.447-.72-2.589-1.354-3.596a17.203 17.203 0 0 1-.586-.973c-.177-.327-.4-.679-.635-1.051-.738-1.169-1.656-2.623-1.656-4.038 0-3.66 2.968-6.637 6.615-6.637"/>
            <mask id="b" fill="#fff">
                <use xlink:href="#a"/>
            </mask>
            <path fill="#FF5000" d="M20.183 30h18v-3h-18z" mask="url(#b)" opacity=".99"/>
            <path fill="#FF5000" d="M42.995 33.096s2.964-6.143 8.672-2.41c0 0-2.613 6.24-8.672 2.41M50.125 4.8S49.822.719 53.908.946c0 0 .514 4.027-3.783 3.854M52.086 10.35s.48-4.75 5.127-3.661c0 0-.224 4.73-5.127 3.66M50.009 24.683s1.667-5.907 7.31-3.49c0 0-1.341 5.938-7.31 3.49M51.809 17.105s1.482-5.25 6.497-3.103c0 0-1.192 5.28-6.497 3.103M15.356 33.108s-2.964-6.143-8.672-2.408c0 0 2.613 6.24 8.672 2.408M8.181 4.8S8.483.719 4.398.946c0 0-.514 4.027 3.783 3.854M6.22 10.35S5.74 5.6 1.091 6.689c0 0 .225 4.73 5.127 3.66M8.297 24.683s-1.667-5.907-7.31-3.49c0 0 1.341 5.938 7.31 3.49M6.497 17.105S5.016 11.855 0 14.002c0 0 1.192 5.28 6.497 3.103" mask="url(#b)"/>
            <path stroke="#FF5000" stroke-linecap="round" d="M15.078 32.695c-5.413-4.208-8.896-10.782-8.896-18.169a22.89 22.89 0 0 1 4.13-13.152M48.055 1.376a22.896 22.896 0 0 1 4.127 13.15c0 7.385-3.48 13.956-8.889 18.165" mask="url(#b)"/>
        </g>
        <g fill="#FF5000" fill-rule="nonzero" opacity=".99">
            <path d="M38.5 16.5l-1.763.927.336-1.963-1.426-1.391 1.971-.287L38.5 12l.882 1.786 1.971.287-1.426 1.39.336 1.964zM27 19.5l-1.763.927.336-1.963-1.426-1.391 1.971-.287L27 15l.882 1.786 1.971.287-1.426 1.39.336 1.964zM50 19.5l-1.763.927.336-1.963-1.426-1.391 1.971-.287L50 15l.882 1.786 1.971.287-1.426 1.39.336 1.964z"/>
        </g>
    </g>
</svg>
