<svg xmlns="http://www.w3.org/2000/svg" width="15" height="15" viewBox="0 0 15 15">
    <g fill="none" fill-rule="evenodd">
        <path fill="#FFF" d="M-480-916H524V823H-480z"/>
        <path fill="#222" fill-rule="nonzero" d="M1.7 1.5h11.6a.7.7 0 0 1 .7.7v.074a.7.7 0 0 1-.7.7H1.7a.7.7 0 0 1-.7-.7V2.2a.7.7 0 0 1 .7-.7zm0 5.263h11.6a.7.7 0 0 1 .7.7v.074a.7.7 0 0 1-.7.7H1.7a.7.7 0 0 1-.7-.7v-.074a.7.7 0 0 1 .7-.7zm0 5.263h11.6a.7.7 0 0 1 .7.7v.074a.7.7 0 0 1-.7.7H1.7a.7.7 0 0 1-.7-.7v-.074a.7.7 0 0 1 .7-.7z"/>
    </g>
</svg>
