<svg xmlns="http://www.w3.org/2000/svg" width="22" height="27" viewBox="0 0 22 27">
    <g fill="none" fill-rule="evenodd">
        <path fill="#FFF" d="M-288-1565H716V174H-288z"/>
        <path fill="#222" fill-rule="nonzero" d="M18.084 14.648a5.662 5.662 0 0 0 3.456 5.208 12.978 12.978 0 0 1-1.797 3.662c-1.06 1.584-2.17 3.131-3.932 3.16-1.712.04-2.287-1.008-4.251-1.008-1.982 0-2.596.979-4.238 1.047-1.678.062-2.96-1.69-4.058-3.26-2.193-3.204-3.901-9.03-1.611-12.995a6.293 6.293 0 0 1 5.295-3.23c1.68-.034 3.24 1.135 4.272 1.135 1.013 0 2.94-1.398 4.929-1.19a5.997 5.997 0 0 1 4.725 2.555 5.86 5.86 0 0 0-2.79 4.916zM14.85 5.07a4.853 4.853 0 0 1-3.832 1.812 5.49 5.49 0 0 1 1.354-3.98A5.87 5.87 0 0 1 16.17.937a5.769 5.769 0 0 1-1.32 4.133z"/>
    </g>
</svg>
